<?xml version="1.0" standalone="no"?>
<!DOCTYPE svg PUBLIC "-//W3C//DTD SVG 1.1//EN" "http://www.w3.org/Graphics/SVG/1.1/DTD/svg11.dtd" >
<svg xmlns="http://www.w3.org/2000/svg">
<metadata></metadata>
<defs>
<font id="dodgedodge" horiz-adv-x="1228" >
<font-face units-per-em="2048" ascent="1812" descent="-236" />
<missing-glyph horiz-adv-x="716" />
<glyph horiz-adv-x="0" />
<glyph unicode="&#xd;" horiz-adv-x="0" />
<glyph horiz-adv-x="0" />
<glyph horiz-adv-x="0" />
<glyph unicode=" "  horiz-adv-x="716" />
<glyph unicode="&#x09;" horiz-adv-x="716" />
<glyph unicode="&#xa0;" horiz-adv-x="716" />
<glyph unicode="." horiz-adv-x="409" d="M41 -18q0 68 48 115.5t116 47.5q72 0 118 -48.5t46 -114.5q0 -72 -49.5 -118t-114.5 -46q-72 0 -118 49t-46 115z" />
<glyph unicode="?" horiz-adv-x="892" d="M41 1104v330h365q4 0 28.5 -4.5t42.5 -8.5q53 -10 108.5 -36.5t108.5 -73.5q49 -47 81 -98.5t48 -94.5q4 -12 8.5 -28.5t8.5 -30.5q6 -31 8 -44.5t3 -20.5t1 -15.5v-26.5q0 -84 -26.5 -158.5t-72.5 -134t-108.5 -102.5t-134.5 -65q-18 -6 -35.5 -12.5t-44.5 -22.5 q-23 -14 -41 -48t-18 -55v-137h-328v174q0 2 3 19.5t5 31.5q6 39 25.5 83t50.5 87t73 81t93 65q10 6 23.5 12t27.5 12q20 8 33.5 12.5t28.5 8.5q63 18 89.5 62t26.5 87q0 39 -20.5 78t-73.5 64q-10 4 -24.5 7t-18.5 3h-344zM43 -20q0 66 48 113.5t116 47.5q72 0 118 -49 t46 -112q0 -37 -13.5 -67t-37 -51.5t-53 -33.5t-60.5 -12q-72 0 -118 49t-46 115z" />
<glyph unicode="A" horiz-adv-x="1325" d="M41 -186l379 1620h485l379 -1620h-328l-114 481h-359l-112 -481h-330zM559 625h205l-100 436z" />
<glyph unicode="B" horiz-adv-x="1200" d="M41 -186v1620h674q4 0 28.5 -4.5t42.5 -8.5q53 -10 108.5 -36.5t109.5 -73.5q49 -47 80.5 -98.5t45.5 -94.5l9.5 -28.5t9.5 -30.5q6 -25 8 -54.5t2 -52.5q0 -82 -27.5 -166t-99.5 -161q72 -82 99.5 -165t27.5 -165q0 -63 -16.5 -130t-54 -127.5t-98 -111.5t-146.5 -84 q-18 -8 -59.5 -18t-69.5 -10h-674zM371 143h323q1 -1 3 -1q5 0 15 4q14 4 25 8q53 23 73.5 62.5t20.5 78.5q0 35 -20 76t-74 63q-10 4 -24.5 8t-18.5 4h-323v-303zM371 801h323q4 0 18.5 4t24.5 8q53 23 73.5 62.5t20.5 76.5q0 35 -20 77t-74 65q-10 4 -24.5 7t-18.5 3h-323 v-303z" />
<glyph unicode="C" horiz-adv-x="1112" d="M41 623q0 154 53 286.5t139 235t195 170t219 92.5q4 0 26.5 6t39.5 8q18 4 48 8.5t58 4.5h252v-330h-260q-6 0 -20.5 -2t-28.5 -5t-26 -7l-11 -3q-37 -8 -80 -28.5t-83 -51t-75.5 -69.5t-56.5 -82q-4 -8 -8 -15t-8 -16q-4 -10 -7.5 -19t-7.5 -18q-4 -14 -9 -29.5 t-9 -29.5q-6 -25 -8 -54.5t-2 -51.5q0 -63 17.5 -130t54 -127.5t97 -111.5t146.5 -84q10 -4 24.5 -8t26.5 -8q18 -4 44 -8.5t30 -4.5h260v-327h-256q-16 0 -43 3t-55.5 8t-53 10t-36.5 9q-154 49 -265.5 134t-182 191.5t-104.5 223.5t-34 230z" />
<glyph unicode="D" horiz-adv-x="1439" d="M41 -186v1620h580q20 0 46.5 -3.5t54.5 -8.5t52.5 -11t38.5 -10q86 -25 164 -66t158 -112q72 -63 115.5 -129t74.5 -131q16 -39 31.5 -86.5t25.5 -92.5q8 -35 12.5 -80.5t4.5 -80.5q0 -145 -49.5 -275.5t-132 -233t-194.5 -174t-237 -102.5q-41 -10 -88 -17t-77 -7h-580z M371 143h254q12 0 30.5 2t37 7.5t34.5 9.5t27 8q86 33 146.5 84t98 112.5t54 128.5t16.5 128v33t-1 14l-3 18t-6 43q-4 14 -9.5 30.5t-9.5 26.5q-14 43 -46.5 95.5t-82.5 97.5q-51 47 -107 73.5t-110 39.5q-16 4 -40.5 7t-28.5 3h-254v-961z" />
<glyph unicode="E" d="M41 -186v1620h1147v-330h-817v-316h616v-329h-616v-316h817v-329h-1147z" />
<glyph unicode="F" d="M41 -186v1620h1147v-330h-817v-316h616v-329h-616v-645h-330z" />
<glyph unicode="G" horiz-adv-x="1277" d="M41 623q0 125 41 249.5t119 232t190.5 187.5t255.5 115q4 0 29.5 7t54.5 11t43 5.5t45 3.5h88v-330h-96q-33 -2 -58.5 -8t-27.5 -9q-37 -8 -80 -28.5t-83 -51t-75.5 -69.5t-56.5 -82q-4 -8 -8 -15t-8 -16q-4 -10 -7.5 -19t-7.5 -18q-4 -14 -9 -29.5t-9 -29.5 q-6 -25 -8 -54.5t-2 -51.5q0 -63 17.5 -130t54 -127.5t97 -111.5t146.5 -84q10 -4 24.5 -8t26.5 -8q18 -4 44 -8.5t30 -4.5h96v316h-186v329h516v-972h-422q-16 0 -43 3t-55.5 8t-53 10t-36.5 9q-154 49 -265.5 134t-182 191.5t-104.5 223.5t-34 230z" />
<glyph unicode="H" horiz-adv-x="1484" d="M41 -186v1620h330v-648h743v648h330v-1620h-328v643h-745v-643h-330z" />
<glyph unicode="I" horiz-adv-x="411" d="M41 -186v1620h330v-1620h-330z" />
<glyph unicode="J" horiz-adv-x="1044" d="M41 254v39h330q4 -78 50 -115t101 -37q39 0 78 20.5t62 74.5q4 10 8 24t4 19v1155h330v-1180q0 -4 -4.5 -27.5t-8.5 -40.5q-6 -37 -24.5 -80t-47 -84.5t-67.5 -79.5t-84 -63q-10 -4 -21.5 -11t-21.5 -11q-8 -4 -18.5 -8.5t-20.5 -6.5q-14 -4 -28.5 -9t-28.5 -9 q-25 -6 -54.5 -8t-52.5 -2q-63 0 -128.5 17t-126 54t-113 97.5t-84.5 146.5q-4 10 -8.5 24.5t-8.5 26.5q-4 18 -8 44t-4 30z" />
<glyph unicode="K" horiz-adv-x="1368" d="M41 -186v1620h330v-689l448 689h391l-467 -721l584 -899h-391l-389 596l-176 -275v-321h-330z" />
<glyph unicode="L" d="M41 -186v1620h330v-1291h817v-329h-1147z" />
<glyph unicode="M" horiz-adv-x="1658" d="M41 -186v1620h328l460 -668l461 668h328v-1620h-330v1036l-459 -668l-458 668v-1036h-330z" />
<glyph unicode="N" horiz-adv-x="1456" d="M41 -186v1620h328l716 -1039v1039h330v-1620h-328l-716 1038v-1038h-330z" />
<glyph unicode="O" horiz-adv-x="1701" d="M41 623q0 168 63.5 315t174 258t258 174.5t315.5 63.5t316.5 -64.5t257 -175.5t172 -258t63.5 -313q0 -170 -63.5 -317.5t-173 -256t-257 -172t-315.5 -63.5t-315.5 63.5t-258 172t-174 256t-63.5 317.5zM371 623q0 -96 37.5 -184.5t102 -154t153 -104.5t188.5 -39 q98 0 185 38t153.5 103.5t104.5 153t38 187.5q0 61 -18.5 126.5t-56 127t-97 112.5t-141.5 84q-12 6 -34.5 11.5t-47.5 9.5t-48.5 7t-37.5 3q-61 0 -129 -18.5t-130.5 -58.5t-113.5 -101.5t-82 -147.5q-10 -31 -18 -75t-8 -80z" />
<glyph unicode="P" horiz-adv-x="1200" d="M41 -186v1620h674q4 0 28.5 -4.5t42.5 -8.5q53 -10 108.5 -36.5t109.5 -73.5q49 -47 80.5 -98.5t45.5 -94.5l9.5 -28.5t9.5 -30.5q6 -31 8 -44.5t2 -20.5v-15.5v-26.5q0 -61 -17.5 -127.5t-54 -127t-97 -113t-146.5 -84.5q-10 -4 -24.5 -8.5t-26.5 -8.5q-18 -4 -44 -8 t-30 -4h-348v-657h-330zM371 801h323q4 0 18.5 4t24.5 8q53 23 73.5 62.5t20.5 76.5q0 35 -20 77t-74 65q-10 4 -24.5 7t-18.5 3h-323v-303z" />
<glyph unicode="Q" horiz-adv-x="1701" d="M41 623q0 168 63.5 315t174 258t258 174.5t315.5 63.5t316.5 -64.5t257 -175.5t172 -258t63.5 -313q0 -127 -42 -260.5t-144 -260.5l184 -288h-391l-54 84q-94 -45 -182 -64.5t-180 -19.5q-168 0 -315.5 63.5t-258 172t-174 256t-63.5 317.5zM371 623q0 -96 37.5 -184.5 t102 -154t153 -104.5t188.5 -39q18 0 44 3t52.5 8.5t49 12.5t32.5 13l-133 207h371q31 47 48 115t17 123q0 61 -18.5 126.5t-56 127t-97 112.5t-141.5 84q-12 6 -34.5 11.5t-47.5 9.5t-48.5 7t-37.5 3q-61 0 -129 -18.5t-130.5 -58.5t-113.5 -101.5t-82 -147.5 q-10 -31 -18 -75t-8 -80z" />
<glyph unicode="R" horiz-adv-x="1218" d="M41 -186v1620h674q4 0 28.5 -4.5t42.5 -8.5q53 -10 108.5 -36.5t109.5 -73.5q49 -47 80.5 -98.5t45.5 -94.5l9.5 -28.5t9.5 -30.5q6 -31 8 -44.5t2 -20.5v-15v-27q0 -57 -14.5 -118.5t-47 -120t-86 -109.5t-130.5 -88q-2 -2 -5.5 -3t-7.5 -5l310 -694h-359l-297 657h-151 v-657h-330zM371 801h323q4 0 18.5 4t24.5 8q53 23 73.5 62.5t20.5 76.5q0 35 -20 77t-74 65q-10 4 -24.5 7t-18.5 3h-323v-303z" />
<glyph unicode="S" horiz-adv-x="1120" d="M41 952q0 125 46 209t114 150q2 2 9 8t16.5 13t18.5 14.5t13 9.5q12 8 26.5 16t30.5 17q10 4 20.5 8t20.5 8q23 8 62 18.5t67 10.5h428v-330h-411q-2 0 -15.5 -3t-23.5 -7q-53 -25 -72.5 -64t-19.5 -78q0 -47 26.5 -90t87.5 -59q29 -8 88.5 -16.5t108.5 -16.5 q33 -6 74 -20.5t69 -30.5q72 -39 120 -90t78 -107.5t43 -115t13 -111.5q0 -63 -17.5 -129t-54 -127.5t-97 -112.5t-146.5 -84q-10 -4 -24.5 -8t-26.5 -8q-18 -4 -44 -8t-30 -4h-432v327h411q4 0 16.5 4.5t22.5 8.5q53 23 74 64.5t21 76.5q0 41 -22.5 84t-82.5 59 q-10 2 -31.5 7.5t-47 9.5t-50 8t-39.5 6q-10 2 -23.5 3t-27.5 5q-14 2 -36.5 10.5t-47.5 18.5t-48.5 21.5t-37.5 21.5q-61 41 -102 91t-67 102.5t-37 106.5t-11 103z" />
<glyph unicode="T" horiz-adv-x="1552" d="M41 1104v330h1470v-330h-569v-1290h-330v1290h-571z" />
<glyph unicode="U" horiz-adv-x="1433" d="M41 461v973h330v-967q0 -6 2 -18.5t4 -24.5t5 -21.5t3 -11.5q20 -66 57 -113t81 -77.5t94.5 -45t99.5 -14.5q47 0 97 14.5t95 44t81 77t59 114.5q0 2 3 11.5t6 21.5t5 23.5t2 19.5v967h328v-977q0 -16 -3.5 -41t-7.5 -48.5t-9 -42t-7 -24.5q-41 -131 -112.5 -223 t-160.5 -150.5t-186.5 -86t-189.5 -27.5q-96 0 -197.5 29.5t-191.5 93t-161 161t-106 230.5q-4 8 -7 26.5t-6 38t-5 38t-2 30.5z" />
<glyph unicode="V" horiz-adv-x="1566" d="M41 1434h360l383 -832l381 832h361l-742 -1620z" />
<glyph unicode="W" horiz-adv-x="1675" d="M41 244v1190h328v-1158q0 -4 3 -16t7 -22q25 -53 63.5 -74t77.5 -21t78 20.5t64 74.5q4 6 7 20t3 18v1158h327v-1158q0 -4 4.5 -16t8.5 -22q23 -53 61.5 -74t77.5 -21t78 20.5t63 74.5q4 6 7.5 20t3.5 18v1158h331v-1178q0 -4 -1 -11t-3 -20l-4 -24q-4 -8 -4 -17 q-6 -20 -18 -57q-33 -84 -91.5 -152.5t-132.5 -101.5q-6 -6 -26 -14q-8 -4 -18.5 -8.5t-18.5 -8.5q-14 -4 -28.5 -8t-31.5 -8q-33 -6 -63 -10q-2 -2 -8 -2h-21h-26h-16.5t-18.5 2q-10 2 -21.5 3t-21.5 3q-16 2 -37 10q-12 0 -33 8q-6 4 -14 6t-16 7q-16 8 -35 17t-39 21 q-16 10 -31.5 24.5t-19.5 14.5q-2 0 -20.5 -14t-31.5 -25q-35 -23 -75.5 -40t-81.5 -25q-14 -4 -27.5 -5t-36.5 -5q-6 -2 -12 -2h-19h-18h-12t-25 2q-37 4 -84 16q-47 10 -98 38t-98 69q-45 41 -80 94t-49 98q-4 10 -8.5 26.5t-8.5 30.5q-4 12 -7 32t-3 24z" />
<glyph unicode="X" horiz-adv-x="1357" d="M41 -186l448 811l-448 809h377l260 -469l262 469h377l-449 -809l449 -811h-377l-260 471l-262 -471h-377z" />
<glyph unicode="Y" horiz-adv-x="1433" d="M41 1434h379l297 -514l297 514h379l-510 -891v-729h-330v729z" />
<glyph unicode="Z" horiz-adv-x="1314" d="M41 139l803 965h-803v330h1233v-326l-803 -963h803v-329h-1233v323z" />
<glyph unicode="a" horiz-adv-x="1325" d="M41 -186l379 1620h485l379 -1620h-328l-114 481h-359l-112 -481h-330zM559 625h205l-100 436z" />
<glyph unicode="b" horiz-adv-x="1200" d="M41 -186v1620h674q4 0 28.5 -4.5t42.5 -8.5q53 -10 108.5 -36.5t109.5 -73.5q49 -47 80.5 -98.5t45.5 -94.5l9.5 -28.5t9.5 -30.5q6 -25 8 -54.5t2 -52.5q0 -82 -27.5 -166t-99.5 -161q72 -82 99.5 -165t27.5 -165q0 -63 -16.5 -130t-54 -127.5t-98 -111.5t-146.5 -84 q-18 -8 -59.5 -18t-69.5 -10h-674zM371 143h323q1 -1 3 -1q5 0 15 4q14 4 25 8q53 23 73.5 62.5t20.5 78.5q0 35 -20 76t-74 63q-10 4 -24.5 8t-18.5 4h-323v-303zM371 801h323q4 0 18.5 4t24.5 8q53 23 73.5 62.5t20.5 76.5q0 35 -20 77t-74 65q-10 4 -24.5 7t-18.5 3h-323 v-303z" />
<glyph unicode="c" horiz-adv-x="1112" d="M41 623q0 154 53 286.5t139 235t195 170t219 92.5q4 0 26.5 6t39.5 8q18 4 48 8.5t58 4.5h252v-330h-260q-6 0 -20.5 -2t-28.5 -5t-26 -7l-11 -3q-37 -8 -80 -28.5t-83 -51t-75.5 -69.5t-56.5 -82q-4 -8 -8 -15t-8 -16q-4 -10 -7.5 -19t-7.5 -18q-4 -14 -9 -29.5 t-9 -29.5q-6 -25 -8 -54.5t-2 -51.5q0 -63 17.5 -130t54 -127.5t97 -111.5t146.5 -84q10 -4 24.5 -8t26.5 -8q18 -4 44 -8.5t30 -4.5h260v-327h-256q-16 0 -43 3t-55.5 8t-53 10t-36.5 9q-154 49 -265.5 134t-182 191.5t-104.5 223.5t-34 230z" />
<glyph unicode="d" horiz-adv-x="1439" d="M41 -186v1620h580q20 0 46.5 -3.5t54.5 -8.5t52.5 -11t38.5 -10q86 -25 164 -66t158 -112q72 -63 115.5 -129t74.5 -131q16 -39 31.5 -86.5t25.5 -92.5q8 -35 12.5 -80.5t4.5 -80.5q0 -145 -49.5 -275.5t-132 -233t-194.5 -174t-237 -102.5q-41 -10 -88 -17t-77 -7h-580z M371 143h254q12 0 30.5 2t37 7.5t34.5 9.5t27 8q86 33 146.5 84t98 112.5t54 128.5t16.5 128v33t-1 14l-3 18t-6 43q-4 14 -9.5 30.5t-9.5 26.5q-14 43 -46.5 95.5t-82.5 97.5q-51 47 -107 73.5t-110 39.5q-16 4 -40.5 7t-28.5 3h-254v-961z" />
<glyph unicode="e" d="M41 -186v1620h1147v-330h-817v-316h616v-329h-616v-316h817v-329h-1147z" />
<glyph unicode="f" d="M41 -186v1620h1147v-330h-817v-316h616v-329h-616v-645h-330z" />
<glyph unicode="g" horiz-adv-x="1277" d="M41 623q0 125 41 249.5t119 232t190.5 187.5t255.5 115q4 0 29.5 7t54.5 11t43 5.5t45 3.5h88v-330h-96q-33 -2 -58.5 -8t-27.5 -9q-37 -8 -80 -28.5t-83 -51t-75.5 -69.5t-56.5 -82q-4 -8 -8 -15t-8 -16q-4 -10 -7.5 -19t-7.5 -18q-4 -14 -9 -29.5t-9 -29.5 q-6 -25 -8 -54.5t-2 -51.5q0 -63 17.5 -130t54 -127.5t97 -111.5t146.5 -84q10 -4 24.5 -8t26.5 -8q18 -4 44 -8.5t30 -4.5h96v316h-186v329h516v-972h-422q-16 0 -43 3t-55.5 8t-53 10t-36.5 9q-154 49 -265.5 134t-182 191.5t-104.5 223.5t-34 230z" />
<glyph unicode="h" horiz-adv-x="1484" d="M41 -186v1620h330v-648h743v648h330v-1620h-328v643h-745v-643h-330z" />
<glyph unicode="i" horiz-adv-x="411" d="M41 -186v1620h330v-1620h-330z" />
<glyph unicode="j" horiz-adv-x="1044" d="M41 254v39h330q4 -78 50 -115t101 -37q39 0 78 20.5t62 74.5q4 10 8 24t4 19v1155h330v-1180q0 -4 -4.5 -27.5t-8.5 -40.5q-6 -37 -24.5 -80t-47 -84.5t-67.5 -79.5t-84 -63q-10 -4 -21.5 -11t-21.5 -11q-8 -4 -18.5 -8.5t-20.5 -6.5q-14 -4 -28.5 -9t-28.5 -9 q-25 -6 -54.5 -8t-52.5 -2q-63 0 -128.5 17t-126 54t-113 97.5t-84.5 146.5q-4 10 -8.5 24.5t-8.5 26.5q-4 18 -8 44t-4 30z" />
<glyph unicode="k" horiz-adv-x="1368" d="M41 -186v1620h330v-689l448 689h391l-467 -721l584 -899h-391l-389 596l-176 -275v-321h-330z" />
<glyph unicode="l" d="M41 -186v1620h330v-1291h817v-329h-1147z" />
<glyph unicode="m" horiz-adv-x="1658" d="M41 -186v1620h328l460 -668l461 668h328v-1620h-330v1036l-459 -668l-458 668v-1036h-330z" />
<glyph unicode="n" horiz-adv-x="1456" d="M41 -186v1620h328l716 -1039v1039h330v-1620h-328l-716 1038v-1038h-330z" />
<glyph unicode="o" horiz-adv-x="1701" d="M41 623q0 168 63.5 315t174 258t258 174.5t315.5 63.5t316.5 -64.5t257 -175.5t172 -258t63.5 -313q0 -170 -63.5 -317.5t-173 -256t-257 -172t-315.5 -63.5t-315.5 63.5t-258 172t-174 256t-63.5 317.5zM371 623q0 -96 37.5 -184.5t102 -154t153 -104.5t188.5 -39 q98 0 185 38t153.5 103.5t104.5 153t38 187.5q0 61 -18.5 126.5t-56 127t-97 112.5t-141.5 84q-12 6 -34.5 11.5t-47.5 9.5t-48.5 7t-37.5 3q-61 0 -129 -18.5t-130.5 -58.5t-113.5 -101.5t-82 -147.5q-10 -31 -18 -75t-8 -80z" />
<glyph unicode="p" horiz-adv-x="1200" d="M41 -186v1620h674q4 0 28.5 -4.5t42.5 -8.5q53 -10 108.5 -36.5t109.5 -73.5q49 -47 80.5 -98.5t45.5 -94.5l9.5 -28.5t9.5 -30.5q6 -31 8 -44.5t2 -20.5v-15.5v-26.5q0 -61 -17.5 -127.5t-54 -127t-97 -113t-146.5 -84.5q-10 -4 -24.5 -8.5t-26.5 -8.5q-18 -4 -44 -8 t-30 -4h-348v-657h-330zM371 801h323q4 0 18.5 4t24.5 8q53 23 73.5 62.5t20.5 76.5q0 35 -20 77t-74 65q-10 4 -24.5 7t-18.5 3h-323v-303z" />
<glyph unicode="q" horiz-adv-x="1701" d="M41 623q0 168 63.5 315t174 258t258 174.5t315.5 63.5t316.5 -64.5t257 -175.5t172 -258t63.5 -313q0 -127 -42 -260.5t-144 -260.5l184 -288h-391l-54 84q-94 -45 -182 -64.5t-180 -19.5q-168 0 -315.5 63.5t-258 172t-174 256t-63.5 317.5zM371 623q0 -96 37.5 -184.5 t102 -154t153 -104.5t188.5 -39q18 0 44 3t52.5 8.5t49 12.5t32.5 13l-133 207h371q31 47 48 115t17 123q0 61 -18.5 126.5t-56 127t-97 112.5t-141.5 84q-12 6 -34.5 11.5t-47.5 9.5t-48.5 7t-37.5 3q-61 0 -129 -18.5t-130.5 -58.5t-113.5 -101.5t-82 -147.5 q-10 -31 -18 -75t-8 -80z" />
<glyph unicode="r" horiz-adv-x="1218" d="M41 -186v1620h674q4 0 28.5 -4.5t42.5 -8.5q53 -10 108.5 -36.5t109.5 -73.5q49 -47 80.5 -98.5t45.5 -94.5l9.5 -28.5t9.5 -30.5q6 -31 8 -44.5t2 -20.5v-15v-27q0 -57 -14.5 -118.5t-47 -120t-86 -109.5t-130.5 -88q-2 -2 -5.5 -3t-7.5 -5l310 -694h-359l-297 657h-151 v-657h-330zM371 801h323q4 0 18.5 4t24.5 8q53 23 73.5 62.5t20.5 76.5q0 35 -20 77t-74 65q-10 4 -24.5 7t-18.5 3h-323v-303z" />
<glyph unicode="s" horiz-adv-x="1120" d="M41 952q0 125 46 209t114 150q2 2 9 8t16.5 13t18.5 14.5t13 9.5q12 8 26.5 16t30.5 17q10 4 20.5 8t20.5 8q23 8 62 18.5t67 10.5h428v-330h-411q-2 0 -15.5 -3t-23.5 -7q-53 -25 -72.5 -64t-19.5 -78q0 -47 26.5 -90t87.5 -59q29 -8 88.5 -16.5t108.5 -16.5 q33 -6 74 -20.5t69 -30.5q72 -39 120 -90t78 -107.5t43 -115t13 -111.5q0 -63 -17.5 -129t-54 -127.5t-97 -112.5t-146.5 -84q-10 -4 -24.5 -8t-26.5 -8q-18 -4 -44 -8t-30 -4h-432v327h411q4 0 16.5 4.5t22.5 8.5q53 23 74 64.5t21 76.5q0 41 -22.5 84t-82.5 59 q-10 2 -31.5 7.5t-47 9.5t-50 8t-39.5 6q-10 2 -23.5 3t-27.5 5q-14 2 -36.5 10.5t-47.5 18.5t-48.5 21.5t-37.5 21.5q-61 41 -102 91t-67 102.5t-37 106.5t-11 103z" />
<glyph unicode="t" horiz-adv-x="1552" d="M41 1104v330h1470v-330h-569v-1290h-330v1290h-571z" />
<glyph unicode="u" horiz-adv-x="1433" d="M41 461v973h330v-967q0 -6 2 -18.5t4 -24.5t5 -21.5t3 -11.5q20 -66 57 -113t81 -77.5t94.5 -45t99.5 -14.5q47 0 97 14.5t95 44t81 77t59 114.5q0 2 3 11.5t6 21.5t5 23.5t2 19.5v967h328v-977q0 -16 -3.5 -41t-7.5 -48.5t-9 -42t-7 -24.5q-41 -131 -112.5 -223 t-160.5 -150.5t-186.5 -86t-189.5 -27.5q-96 0 -197.5 29.5t-191.5 93t-161 161t-106 230.5q-4 8 -7 26.5t-6 38t-5 38t-2 30.5z" />
<glyph unicode="v" horiz-adv-x="1566" d="M41 1434h360l383 -832l381 832h361l-742 -1620z" />
<glyph unicode="w" horiz-adv-x="1675" d="M41 244v1190h328v-1158q0 -4 3 -16t7 -22q25 -53 63.5 -74t77.5 -21t78 20.5t64 74.5q4 6 7 20t3 18v1158h327v-1158q0 -4 4.5 -16t8.5 -22q23 -53 61.5 -74t77.5 -21t78 20.5t63 74.5q4 6 7.5 20t3.5 18v1158h331v-1178q0 -4 -1 -11t-3 -20l-4 -24q-4 -8 -4 -17 q-6 -20 -18 -57q-33 -84 -91.5 -152.5t-132.5 -101.5q-6 -6 -26 -14q-8 -4 -18.5 -8.5t-18.5 -8.5q-14 -4 -28.5 -8t-31.5 -8q-33 -6 -63 -10q-2 -2 -8 -2h-21h-26h-16.5t-18.5 2q-10 2 -21.5 3t-21.5 3q-16 2 -37 10q-12 0 -33 8q-6 4 -14 6t-16 7q-16 8 -35 17t-39 21 q-16 10 -31.5 24.5t-19.5 14.5q-2 0 -20.5 -14t-31.5 -25q-35 -23 -75.5 -40t-81.5 -25q-14 -4 -27.5 -5t-36.5 -5q-6 -2 -12 -2h-19h-18h-12t-25 2q-37 4 -84 16q-47 10 -98 38t-98 69q-45 41 -80 94t-49 98q-4 10 -8.5 26.5t-8.5 30.5q-4 12 -7 32t-3 24z" />
<glyph unicode="x" horiz-adv-x="1357" d="M41 -186l448 811l-448 809h377l260 -469l262 469h377l-449 -809l449 -811h-377l-260 471l-262 -471h-377z" />
<glyph unicode="y" horiz-adv-x="1433" d="M41 1434h379l297 -514l297 514h379l-510 -891v-729h-330v729z" />
<glyph unicode="z" horiz-adv-x="1314" d="M41 139l803 965h-803v330h1233v-326l-803 -963h803v-329h-1233v323z" />
<glyph unicode="&#xa9;" horiz-adv-x="2064" d="M0 -406v2804h2064v-2804h-2064zM344 131q0 -18 18.5 -29.5t28.5 -11.5q4 0 14.5 3t14.5 9q53 47 105.5 95.5t86.5 81.5q66 59 129.5 120.5t126.5 118.5l158 -121l-248 -231l-166 -154q-16 -16 -23 -25.5t-7 -21.5q0 -10 11 -27.5t25 -17.5h1068q16 0 26 17.5t10 27.5 q0 25 -20 39q-131 98 -271.5 200.5t-256.5 201.5l456 419v-546q0 -16 18.5 -28.5t28.5 -12.5q12 0 29.5 12t17.5 26v666q0 16 -18 25.5t-29 9.5q-6 0 -16 -3t-16 -7q-51 -47 -118 -107.5t-139.5 -128t-148.5 -137.5t-143 -133l-158 119q14 16 31.5 30.5t27.5 24.5 q16 16 33 31.5t31 27.5q27 25 53.5 48.5t48.5 48.5q8 8 8 24q0 6 -6 19.5t-14 17.5q-78 57 -166 122.5t-177 133.5t-176 133.5t-163 122.5q-4 0 -4 6l131 121l459 426q25 23 48 44t40 40q4 4 5 11t1 11q0 20 -15.5 32.5t-31.5 12.5q-12 0 -31.5 -14t-39 -32.5t-36 -34 t-20.5 -17.5l-379 -350q-16 -16 -35.5 -32.5t-36.5 -33.5q-66 -59 -121 -114q-23 -23 -41 -38.5t-18 -35.5q0 -23 25 -41q41 -31 93 -71t106.5 -80.5t107.5 -80.5t98 -73q72 -51 146.5 -108.5t128.5 -100.5l-189 -174l-217 164l-219 166q-6 4 -17.5 7t-15.5 3q-6 0 -26.5 -8 t-20.5 -27v-811zM438 248v592l353 -265zM750 12l352 330l432 -330h-784z" />
<glyph unicode="&#xae;" horiz-adv-x="2064" d="M0 -406v2804h2064v-2804h-2064zM344 131q0 -18 18.5 -29.5t28.5 -11.5q4 0 14.5 3t14.5 9q53 47 105.5 95.5t86.5 81.5q66 59 129.5 120.5t126.5 118.5l158 -121l-248 -231l-166 -154q-16 -16 -23 -25.5t-7 -21.5q0 -10 11 -27.5t25 -17.5h1068q16 0 26 17.5t10 27.5 q0 25 -20 39q-131 98 -271.5 200.5t-256.5 201.5l456 419v-546q0 -16 18.5 -28.5t28.5 -12.5q12 0 29.5 12t17.5 26v666q0 16 -18 25.5t-29 9.5q-6 0 -16 -3t-16 -7q-51 -47 -118 -107.5t-139.5 -128t-148.5 -137.5t-143 -133l-158 119q14 16 31.5 30.5t27.5 24.5 q16 16 33 31.5t31 27.5q27 25 53.5 48.5t48.5 48.5q8 8 8 24q0 6 -6 19.5t-14 17.5q-78 57 -166 122.5t-177 133.5t-176 133.5t-163 122.5q-4 0 -4 6l131 121l459 426q25 23 48 44t40 40q4 4 5 11t1 11q0 20 -15.5 32.5t-31.5 12.5q-12 0 -31.5 -14t-39 -32.5t-36 -34 t-20.5 -17.5l-379 -350q-16 -16 -35.5 -32.5t-36.5 -33.5q-66 -59 -121 -114q-23 -23 -41 -38.5t-18 -35.5q0 -23 25 -41q41 -31 93 -71t106.5 -80.5t107.5 -80.5t98 -73q72 -51 146.5 -108.5t128.5 -100.5l-189 -174l-217 164l-219 166q-6 4 -17.5 7t-15.5 3q-6 0 -26.5 -8 t-20.5 -27v-811zM438 248v592l353 -265zM750 12l352 330l432 -330h-784z" />
<glyph unicode="&#x2000;" horiz-adv-x="1199" />
<glyph unicode="&#x2001;" horiz-adv-x="2398" />
<glyph unicode="&#x2002;" horiz-adv-x="1199" />
<glyph unicode="&#x2003;" horiz-adv-x="2398" />
<glyph unicode="&#x2004;" horiz-adv-x="799" />
<glyph unicode="&#x2005;" horiz-adv-x="599" />
<glyph unicode="&#x2006;" horiz-adv-x="399" />
<glyph unicode="&#x2007;" horiz-adv-x="399" />
<glyph unicode="&#x2008;" horiz-adv-x="299" />
<glyph unicode="&#x2009;" horiz-adv-x="479" />
<glyph unicode="&#x200a;" horiz-adv-x="133" />
<glyph unicode="&#x202f;" horiz-adv-x="479" />
<glyph unicode="&#x205f;" horiz-adv-x="599" />
<glyph unicode="&#x2122;" horiz-adv-x="2064" d="M0 -406v2804h2064v-2804h-2064zM344 131q0 -18 18.5 -29.5t28.5 -11.5q4 0 14.5 3t14.5 9q53 47 105.5 95.5t86.5 81.5q66 59 129.5 120.5t126.5 118.5l158 -121l-248 -231l-166 -154q-16 -16 -23 -25.5t-7 -21.5q0 -10 11 -27.5t25 -17.5h1068q16 0 26 17.5t10 27.5 q0 25 -20 39q-131 98 -271.5 200.5t-256.5 201.5l456 419v-546q0 -16 18.5 -28.5t28.5 -12.5q12 0 29.5 12t17.5 26v666q0 16 -18 25.5t-29 9.5q-6 0 -16 -3t-16 -7q-51 -47 -118 -107.5t-139.5 -128t-148.5 -137.5t-143 -133l-158 119q14 16 31.5 30.5t27.5 24.5 q16 16 33 31.5t31 27.5q27 25 53.5 48.5t48.5 48.5q8 8 8 24q0 6 -6 19.5t-14 17.5q-78 57 -166 122.5t-177 133.5t-176 133.5t-163 122.5q-4 0 -4 6l131 121l459 426q25 23 48 44t40 40q4 4 5 11t1 11q0 20 -15.5 32.5t-31.5 12.5q-12 0 -31.5 -14t-39 -32.5t-36 -34 t-20.5 -17.5l-379 -350q-16 -16 -35.5 -32.5t-36.5 -33.5q-66 -59 -121 -114q-23 -23 -41 -38.5t-18 -35.5q0 -23 25 -41q41 -31 93 -71t106.5 -80.5t107.5 -80.5t98 -73q72 -51 146.5 -108.5t128.5 -100.5l-189 -174l-217 164l-219 166q-6 4 -17.5 7t-15.5 3q-6 0 -26.5 -8 t-20.5 -27v-811zM438 248v592l353 -265zM750 12l352 330l432 -330h-784z" />
<glyph unicode="&#x25fc;" horiz-adv-x="1433" d="M0 0v1434h1434v-1434h-1434z" />
</font>
</defs>
</svg>
